<svg id="visual" viewBox="0 0 900 600" width="900" height="600" xmlns="http://www.w3.org/2000/svg" xmlns:xlink="http://www.w3.org/1999/xlink" version="1.1"><rect x="0" y="0" width="900" height="600" fill="#000000"></rect><defs><linearGradient id="grad1_0" x1="33.3%" y1="100%" x2="100%" y2="0%"><stop offset="20%" stop-color="#000000" stop-opacity="1"></stop><stop offset="80%" stop-color="#000000" stop-opacity="1"></stop></linearGradient></defs><defs><linearGradient id="grad2_0" x1="0%" y1="100%" x2="66.7%" y2="0%"><stop offset="20%" stop-color="#000000" stop-opacity="1"></stop><stop offset="80%" stop-color="#000000" stop-opacity="1"></stop></linearGradient></defs><g transform="translate(900, 600)"><path d="M-486.7 0C-434.9 -46.2 -383.1 -92.3 -364 -150.8C-344.9 -209.2 -358.6 -280 -334.5 -334.5C-310.3 -388.9 -248.3 -427 -186.3 -449.7C-124.2 -472.4 -62.1 -479.6 0 -486.7L0 0Z" fill="#DC5F00"></path></g><g transform="translate(0, 0)"><path d="M486.7 0C459.4 57 432 114 407.4 168.8C382.8 223.5 361 276 326 326C291 375.9 242.8 423.3 186.3 449.7C129.7 476.1 64.9 481.4 0 486.7L0 0Z" fill="#DC5F00"></path></g></svg>