<svg xmlns="http://www.w3.org/2000/svg" version="1.1" xmlns:xlink="http://www.w3.org/1999/xlink" xmlns:svgjs="http://svgjs.dev/svgjs" width="1440" height="560" preserveAspectRatio="none" viewBox="0 0 1440 560"><g mask="url(&quot;#SvgjsMask1008&quot;)" fill="none"><rect width="1440" height="560" x="0" y="0" fill="rgba(0, 0, 0, 1)"></rect><path d="M1260 127.27C1254.68 131.39 1255.17 133.94 1255.17 140C1255.17 143.72 1255.92 146.63 1260 146.83C1328.33 150.22 1330.99 150.31 1400 147.18C1406.38 146.89 1410.77 146.15 1410.77 140C1410.77 86.56 1429.85 30.52 1400 28C1354.47 24.16 1327.09 75.39 1260 127.27" stroke="rgba(220, 95, 0, 1)" stroke-width="2"></path><path d="M840 275.33C837.56 275.33 835.25 277.76 835.25 280C835.25 282.09 837.57 284 840 284C842.59 284 845.28 282.1 845.28 280C845.28 277.77 842.58 275.33 840 275.33" stroke="rgba(220, 95, 0, 1)" stroke-width="2"></path><path d="M700 417.59C698.79 417.59 697.45 418.69 697.45 420C697.45 421.6 698.81 423.41 700 423.41C701.1 423.41 702.03 421.62 702.03 420C702.03 418.71 701.08 417.59 700 417.59" stroke="rgba(220, 95, 0, 1)" stroke-width="2"></path><path d="M0 82.96C22.72 82.96 36.32 111.94 73.33 140C106.32 165.02 101.62 181.09 140 189.12C204.95 202.71 212.78 197.48 280 183.24C328.72 172.92 329.04 166.32 371.88 140C399.04 123.31 401.82 123.17 420 97.22C450.88 53.17 431.61 26.66 470 0C501.61 -21.95 515 0 560 0C598.89 0 630.19 -24.53 637.78 0C651.85 45.47 586.18 83.07 603.33 140C617.29 186.35 654.85 206.56 700 206.56C735.92 206.56 731.29 171.72 765.48 140C801.29 106.79 802.49 76.71 840 76.71C878.25 76.71 881.19 105.57 917 140C951.19 172.87 948.2 211.32 980 211.32C1012.28 211.32 1011.33 174.43 1045.17 140C1081.33 103.2 1082.59 68.85 1120 68.85C1157.41 68.85 1161.39 100.99 1194.83 140C1231.39 182.66 1215.2 220.84 1260 232.2C1317.79 246.86 1333.69 220.09 1400 192.05C1442.73 173.99 1468.43 178.04 1478.08 140C1492.78 82.01 1429.8 42.73 1448.7 0C1460.76 -27.27 1521.98 -27.63 1540 0C1567.63 42.37 1540 70 1540 140C1540 210 1540 210 1540 280C1540 350 1540 350 1540 420C1540 490 1575 525 1540 560C1505 595 1470 560 1400 560C1330 560 1330 560 1260 560C1222.66 560 1213.73 577.8 1185.33 560C1143.73 533.92 1153.02 472.24 1120 472.24C1086.56 472.24 1094.74 533.47 1052.41 560C1024.74 577.35 1016.2 560 980 560C910 560 910 560 840 560C770 560 770 560 700 560C630 560 630 560 560 560C539.26 560 525.92 575.82 518.52 560C493.18 505.82 521.64 483 494.52 420C472.38 368.57 467.87 343.57 420 331.15C360.61 315.75 350.48 361.9 280 364.36C210.48 366.79 206.98 362.16 140 340.94C73.81 319.98 72.89 314.89 13.66 280C2.89 273.65 1.21 270.86 0 258.46C-5.62 200.86 0 199.23 0 140C0 111.48 -13.95 82.96 0 82.96" stroke="rgba(220, 95, 0, 1)" stroke-width="2"></path><path d="M140 43.45C121.97 43.45 109.27 13.77 109.27 0C109.27 -7.95 124.63 0 140 0C165.2 0 190.4 -9.36 190.4 0C190.4 12.36 162.54 43.45 140 43.45" stroke="rgba(220, 95, 0, 1)" stroke-width="2"></path><path d="M840 217C807.12 217 775.93 249.73 775.93 280C775.93 308.23 807.26 334 840 334C874.95 334 911.32 308.35 911.32 280C911.32 249.85 874.82 217 840 217" stroke="rgba(220, 95, 0, 1)" stroke-width="2"></path><path d="M1120 243.33C1097.49 243.33 1078.38 260.86 1078.38 280C1078.38 300.59 1097.13 322.78 1120 322.78C1148.74 322.78 1181.6 300.31 1181.6 280C1181.6 260.59 1149.1 243.33 1120 243.33" stroke="rgba(220, 95, 0, 1)" stroke-width="2"></path><path d="M0 309.47C8.51 309.47 33.33 364.61 33.33 420C33.33 478.21 8.5 536.67 0 536.67C-8.17 536.67 0 478.34 0 420C0 364.74 -8.15 309.47 0 309.47" stroke="rgba(220, 95, 0, 1)" stroke-width="2"></path><path d="M700 357.24C668.68 357.24 633.82 385.78 633.82 420C633.82 461.55 669.23 508.78 700 508.78C728.7 508.78 752.75 462.24 752.75 420C752.75 386.47 728.15 357.24 700 357.24" stroke="rgba(220, 95, 0, 1)" stroke-width="2"></path><path d="M980 355.83C953.74 355.83 932.62 389.87 932.62 420C932.62 444.94 954.48 465.97 980 465.97C1010.94 465.97 1045.53 445.66 1045.53 420C1045.53 390.59 1010.19 355.83 980 355.83" stroke="rgba(220, 95, 0, 1)" stroke-width="2"></path><path d="M560 87.5C541.15 87.5 520 30.9 520 0C520 -12.85 540 0 560 0C577.29 0 594.57 -11.76 594.57 0C594.57 31.99 578.43 87.5 560 87.5" stroke="rgba(220, 95, 0, 1)" stroke-width="2"></path><path d="M821.94 140C821.94 131.89 830.91 124.66 840 124.66C849.27 124.66 858.67 131.87 858.67 140C858.67 148.88 849.26 158.67 840 158.67C830.89 158.67 821.94 148.89 821.94 140" stroke="rgba(220, 95, 0, 1)" stroke-width="2"></path><path d="M1105.52 140C1105.52 132.45 1112.76 126.23 1120 126.23C1127.24 126.23 1134.48 132.45 1134.48 140C1134.48 149.33 1127.24 160 1120 160C1112.76 160 1105.52 149.33 1105.52 140" stroke="rgba(220, 95, 0, 1)" stroke-width="2"></path><path d="M1540 127.27C1529.61 127.27 1499.42 48.81 1499.42 0C1499.42 -14.83 1535.09 -15.38 1540 0C1555.38 48.25 1549.9 127.27 1540 127.27" stroke="rgba(220, 95, 0, 1)" stroke-width="2"></path><path d="M99.02 280C99.02 267.05 116.13 256.5 140 250.53C206.62 233.86 212.22 226.72 280 234.71C337.22 241.46 390 258.62 390 280C390 301.01 336.57 315.02 280 319.49C211.57 324.9 208.46 314.7 140 299.76C117.97 294.95 99.02 291.67 99.02 280" stroke="rgba(220, 95, 0, 1)" stroke-width="2"></path><path d="M665 280C665 271.8 683.87 263.93 700 263.93C709.68 263.93 716.61 271.86 716.61 280C716.61 288.35 709.77 296.9 700 296.9C683.97 296.9 665 288.28 665 280" stroke="rgba(220, 95, 0, 1)" stroke-width="2"></path><path d="M977.36 280C977.36 278.65 978.56 277.36 980 277.36C981.77 277.36 983.78 278.63 983.78 280C983.78 281.41 981.76 282.92 980 282.92C978.55 282.92 977.36 281.43 977.36 280" stroke="rgba(220, 95, 0, 1)" stroke-width="2"></path><path d="M1304 280C1340.57 246.4 1352.34 236.92 1400 236.92C1444.55 236.92 1484.9 244.69 1488.42 280C1494.03 336.23 1414.22 351.76 1418.26 420C1422.51 491.76 1510.58 517.25 1505 560C1501.45 587.25 1452.5 560 1400 560C1330 560 1330 560 1260 560C1242.11 560 1236.13 571.91 1224.22 560C1166.13 501.91 1110.39 472.25 1120 420C1128.28 375.03 1203.92 408.23 1260 365.56C1295.92 338.23 1270.57 310.72 1304 280" stroke="rgba(220, 95, 0, 1)" stroke-width="2"></path><path d="M550.97 420C550.97 408.67 555.24 397.6 560 397.6C564.85 397.6 570.18 408.64 570.18 420C570.18 433.18 564.84 446.67 560 446.67C555.23 446.67 550.97 433.21 550.97 420" stroke="rgba(220, 95, 0, 1)" stroke-width="2"></path><path d="M803.48 420C811.72 396.69 821.47 384 840 384C859.12 384 859.67 401.69 878.77 420C929.67 468.8 931.45 467.26 980 518.21C998.16 537.26 1012.18 547.02 1012.18 560C1012.18 567.92 996.09 560 980 560C910 560 910 560 840 560C808.89 560 783.33 581.29 777.78 560C765.07 511.29 780.61 484.69 803.48 420" stroke="rgba(220, 95, 0, 1)" stroke-width="2"></path></g><defs><mask id="SvgjsMask1008"><rect width="1440" height="560" fill="#ffffff"></rect></mask></defs></svg>