<svg width="191" height="191" viewBox="0 0 191 191" fill="none" xmlns="http://www.w3.org/2000/svg">
<rect x="0.5" y="0.5" width="190" height="190" rx="29.5" fill="#CFCFCF"/>
<rect x="0.5" y="0.5" width="190" height="190" rx="29.5" stroke="black"/>
<path d="M132.164 155H37.9545C36.7818 155 36 154.204 36 153.01V37.99C36 36.796 36.7818 36 37.9545 36H132.164C133.336 36 134.118 36.796 134.118 37.99V92.3161C134.118 93.51 133.336 94.306 132.164 94.306C130.991 94.306 130.209 93.51 130.209 92.3161V39.9799H39.9091V151.02H130.209V134.503C130.209 133.309 130.991 132.513 132.164 132.513C133.336 132.513 134.118 133.309 134.118 134.503V153.01C134.118 154.005 133.141 155 132.164 155Z" fill="black"/>
<path d="M61.9955 63.8595C57.1091 63.8595 53.2 59.8796 53.2 54.9047C53.2 49.9298 57.1091 45.9498 61.9955 45.9498C66.8818 45.9498 70.7909 49.9298 70.7909 54.9047C70.7909 59.8796 66.8818 63.8595 61.9955 63.8595ZM61.9955 49.7308C59.2591 49.7308 57.1091 51.9197 57.1091 54.7057C57.1091 57.4916 59.2591 59.6806 61.9955 59.6806C64.7318 59.6806 66.8818 57.4916 66.8818 54.7057C66.8818 52.1187 64.7318 49.7308 61.9955 49.7308Z" fill="black"/>
<path d="M78.2182 84.7542H45.7727C44.6 84.7542 43.8182 83.9582 43.8182 82.7642C43.8182 74.8044 48.7045 67.8395 56.1318 65.2525C56.9136 65.0535 57.8909 65.2525 58.2818 66.0485C59.0636 67.2425 60.4318 67.8395 61.8 67.8395C63.1682 67.8395 64.5364 67.2425 65.5136 66.0485C66.1 65.2525 66.8818 65.0535 67.6636 65.2525C75.0909 67.8395 79.9773 74.8044 79.9773 82.7642C80.1727 83.7592 79.3909 84.7542 78.2182 84.7542ZM47.9227 80.7743H76.2636C75.6773 75.7993 72.3545 71.4214 67.8591 69.4314C66.2955 71.0234 64.3409 71.8194 61.9955 71.8194C59.8455 71.8194 57.6954 71.0234 56.3273 69.4314C51.6364 71.4214 48.5091 75.7993 47.9227 80.7743Z" fill="black"/>
<path d="M120.241 52.7157H90.1409C88.9682 52.7157 88.1863 51.9197 88.1863 50.7257C88.1863 49.5318 88.9682 48.7358 90.1409 48.7358H120.241C121.414 48.7358 122.195 49.5318 122.195 50.7257C122.195 51.9197 121.218 52.7157 120.241 52.7157Z" fill="black"/>
<path d="M120.241 68.0385H90.1409C88.9682 68.0385 88.1863 67.2425 88.1863 66.0485C88.1863 64.8545 88.9682 64.0585 90.1409 64.0585H120.241C121.414 64.0585 122.195 64.8545 122.195 66.0485C122.195 67.2425 121.218 68.0385 120.241 68.0385Z" fill="black"/>
<path d="M120.241 83.3612H90.1409C88.9682 83.3612 88.1863 82.5652 88.1863 81.3712C88.1863 80.1772 88.9682 79.3813 90.1409 79.3813H120.241C121.414 79.3813 122.195 80.1772 122.195 81.3712C122.195 82.5652 121.218 83.3612 120.241 83.3612Z" fill="black"/>
<path d="M100.5 98.6839H45.7727C44.6 98.6839 43.8182 97.888 43.8182 96.694C43.8182 95.5 44.6 94.704 45.7727 94.704H100.5C101.673 94.704 102.455 95.5 102.455 96.694C102.455 97.888 101.477 98.6839 100.5 98.6839Z" fill="black"/>
<path d="M96.0045 114.206H45.7727C44.6 114.206 43.8182 113.41 43.8182 112.216C43.8182 111.022 44.6 110.226 45.7727 110.226H96.0045C97.1773 110.226 97.9591 111.022 97.9591 112.216C97.9591 113.41 97.1773 114.206 96.0045 114.206Z" fill="black"/>
<path d="M100.5 129.528H45.7727C44.6 129.528 43.8182 128.732 43.8182 127.538C43.8182 126.344 44.6 125.548 45.7727 125.548H100.5C101.673 125.548 102.455 126.344 102.455 127.538C102.455 128.732 101.477 129.528 100.5 129.528Z" fill="black"/>
<path d="M120.241 144.851H45.7727C44.6 144.851 43.8182 144.055 43.8182 142.861C43.8182 141.667 44.6 140.871 45.7727 140.871H120.241C121.414 140.871 122.195 141.667 122.195 142.861C122.195 144.055 121.218 144.851 120.241 144.851Z" fill="black"/>
<path d="M126.886 137.09C120.827 137.09 114.964 134.702 110.468 130.125C105.973 125.548 103.627 119.778 103.627 113.41C103.627 107.042 105.973 101.072 110.468 96.694C114.768 92.316 120.632 89.7291 126.886 89.7291C133.141 89.7291 139.005 92.117 143.305 96.694C151.123 104.654 152.296 117.191 146.236 126.543C145.455 127.936 144.282 129.13 143.305 130.324C142.132 131.319 140.959 132.314 139.591 133.309C135.682 135.896 131.382 137.09 126.886 137.09ZM126.886 93.709C121.805 93.709 116.918 95.699 113.205 99.4799C109.491 103.261 107.536 108.236 107.536 113.41C107.536 118.584 109.491 123.559 113.205 127.339C119.655 133.906 129.818 134.901 137.441 129.926C138.418 129.13 139.591 128.334 140.568 127.339C141.546 126.344 142.327 125.349 143.109 124.156C148.191 116.395 147.018 106.047 140.568 99.4799C136.855 95.699 131.968 93.709 126.886 93.709Z" fill="black"/>
<path d="M157.377 152.214H157.182C155.032 152.214 153.077 151.219 151.709 149.627L137.05 132.911C136.659 132.513 136.464 131.916 136.659 131.319C136.659 130.722 137.05 130.324 137.441 129.926C138.614 129.13 139.591 128.334 140.568 127.339C141.545 126.344 142.327 125.349 143.109 124.156C143.5 123.758 143.891 123.36 144.477 123.36C145.064 123.36 145.65 123.559 146.041 123.758L162.459 138.682C164.023 140.075 165 142.065 165 144.254C165 146.443 164.218 148.433 162.85 149.826C161.286 151.418 159.527 152.214 157.377 152.214ZM141.545 131.916L154.836 147.04C155.423 147.836 156.4 148.234 157.377 148.234C158.355 148.234 159.332 147.836 160.114 147.239C160.895 146.642 161.286 145.448 161.091 144.453C161.091 143.458 160.7 142.463 159.918 141.866L145.064 128.334C144.477 128.931 143.891 129.528 143.305 130.125C142.718 130.722 142.132 131.319 141.545 131.916Z" fill="black"/>
</svg>
