<svg width="109" height="62" viewBox="0 0 109 62" fill="none" xmlns="http://www.w3.org/2000/svg">
<path d="M20.9201 14.485C20.9201 13.8617 20.8634 13.2383 20.7501 12.615C20.6934 11.935 20.5234 11.34 20.2401 10.83C20.0134 10.2633 19.6451 9.81 19.1351 9.47C18.6817 9.13 18.0301 8.96 17.1801 8.96C16.1034 8.96 15.1967 9.3 14.4601 9.98C14.1201 9.07333 13.9501 8.25166 13.9501 7.515C13.9501 6.60833 14.0917 5.73 14.3751 4.88C14.7151 3.97333 15.2251 3.18 15.9051 2.5C16.5851 1.82 17.4351 1.28166 18.4551 0.884996C19.5317 0.431662 20.8351 0.204995 22.3651 0.204995C25.7651 0.204995 28.4001 1.225 30.2701 3.265C32.1401 5.305 33.0751 8.11 33.0751 11.68V62C31.5451 62 30.0434 61.8867 28.5701 61.66C27.1534 61.4333 25.8501 60.98 24.6601 60.3C23.5267 59.5633 22.6201 58.4867 21.9401 57.07C21.2601 55.6533 20.9201 53.755 20.9201 51.375V14.485ZM12.6751 62H11.8251C10.3517 62 8.93506 61.8583 7.57506 61.575C6.21506 61.2917 4.99673 60.7817 3.92006 60.045C2.90006 59.3083 2.05006 58.2883 1.37006 56.985C0.746725 55.6817 0.435059 53.9817 0.435059 51.885V0.289999H1.79506C3.15506 0.289999 4.48673 0.459999 5.79006 0.799998C7.09339 1.08333 8.25506 1.62166 9.27506 2.415C10.2951 3.15166 11.1167 4.17166 11.7401 5.475C12.3634 6.77833 12.6751 8.45 12.6751 10.49V62ZM41.3201 14.485C41.3201 13.8617 41.2634 13.2383 41.1501 12.615C41.0934 11.935 40.9234 11.34 40.6401 10.83C40.4134 10.2633 40.0451 9.81 39.5351 9.47C39.0817 9.13 38.4301 8.96 37.5801 8.96C36.5034 8.96 35.5967 9.3 34.8601 9.98C34.5201 9.07333 34.3501 8.25166 34.3501 7.515C34.3501 6.60833 34.4917 5.73 34.7751 4.88C35.1151 3.97333 35.6251 3.18 36.3051 2.5C36.9851 1.82 37.8351 1.28166 38.8551 0.884996C39.9317 0.431662 41.2351 0.204995 42.7651 0.204995C46.1651 0.204995 48.8001 1.225 50.6701 3.265C52.5401 5.305 53.4751 8.11 53.4751 11.68V62C51.9451 62 50.4434 61.8867 48.9701 61.66C47.5534 61.4333 46.2501 60.98 45.0601 60.3C43.9267 59.5633 43.0201 58.4867 42.3401 57.07C41.6601 55.6533 41.3201 53.755 41.3201 51.375V14.485ZM78.8874 0.289999H80.2474C81.6074 0.289999 82.9391 0.459999 84.2424 0.799998C85.5457 1.08333 86.7074 1.62166 87.7274 2.415C88.7474 3.15166 89.5691 4.17166 90.1924 5.475C90.8157 6.77833 91.1274 8.45 91.1274 10.49V51.885C91.1274 53.9817 90.7874 55.6817 90.1074 56.985C89.4841 58.2883 88.6341 59.3083 87.5574 60.045C86.5374 60.7817 85.3191 61.2917 83.9024 61.575C82.5424 61.8583 81.1541 62 79.7374 62H78.8874V0.289999ZM107.957 62H107.107C105.634 62 104.161 61.8583 102.687 61.575C101.271 61.2917 99.9674 60.7817 98.7774 60.045C97.6441 59.3083 96.7091 58.2883 95.9724 56.985C95.2357 55.6817 94.8674 53.9817 94.8674 51.885V31.315H96.2274C97.6441 31.315 99.0607 31.485 100.477 31.825C101.894 32.1083 103.141 32.6467 104.217 33.44C105.351 34.1767 106.257 35.1967 106.937 36.5C107.617 37.8033 107.957 39.475 107.957 41.515V62ZM108.807 18.905C108.807 22.305 108.099 25.0817 106.682 27.235C105.266 29.3317 102.999 30.38 99.8824 30.38C98.7491 30.38 97.7291 30.21 96.8224 29.87C95.9157 29.4733 95.1507 28.9917 94.5274 28.425C93.9041 27.8583 93.4224 27.2067 93.0824 26.47C92.7424 25.7333 92.5724 25.025 92.5724 24.345C92.5724 23.665 92.6007 23.1267 92.6574 22.73C92.7141 22.3333 92.7707 21.9933 92.8274 21.71C93.1107 22.05 93.3657 22.305 93.5924 22.475C93.8757 22.645 94.2441 22.73 94.6974 22.73C95.4907 22.6733 95.9724 22.3617 96.1424 21.795C96.3124 21.1717 96.3974 20.435 96.3974 19.585V0.374998H97.5024C98.6924 0.374998 99.9391 0.488332 101.242 0.714999C102.546 0.941666 103.764 1.42333 104.897 2.16C106.031 2.84 106.966 3.88833 107.702 5.305C108.439 6.665 108.807 8.50666 108.807 10.83V18.905Z" fill="white"/>
</svg>
