<svg width="110" height="62" viewBox="0 0 110 62" fill="none" xmlns="http://www.w3.org/2000/svg">
<path d="M21.4201 14.485C21.4201 13.8617 21.3634 13.2383 21.2501 12.615C21.1934 11.935 21.0234 11.34 20.7401 10.83C20.5134 10.2633 20.1451 9.81 19.6351 9.47C19.1817 9.13 18.5301 8.96 17.6801 8.96C16.6034 8.96 15.6967 9.3 14.9601 9.98C14.6201 9.07333 14.4501 8.25166 14.4501 7.515C14.4501 6.60833 14.5917 5.73 14.8751 4.88C15.2151 3.97333 15.7251 3.18 16.4051 2.5C17.0851 1.82 17.9351 1.28166 18.9551 0.884996C20.0317 0.431662 21.3351 0.204995 22.8651 0.204995C26.2651 0.204995 28.9001 1.225 30.7701 3.265C32.6401 5.305 33.5751 8.11 33.5751 11.68V62C32.0451 62 30.5434 61.8867 29.0701 61.66C27.6534 61.4333 26.3501 60.98 25.1601 60.3C24.0267 59.5633 23.1201 58.4867 22.4401 57.07C21.7601 55.6533 21.4201 53.755 21.4201 51.375V14.485ZM13.1751 62H12.3251C10.8517 62 9.43506 61.8583 8.07506 61.575C6.71506 61.2917 5.49673 60.7817 4.42006 60.045C3.40006 59.3083 2.55006 58.2883 1.87006 56.985C1.24673 55.6817 0.935059 53.9817 0.935059 51.885V0.289999H2.29506C3.65506 0.289999 4.98673 0.459999 6.29006 0.799998C7.59339 1.08333 8.75506 1.62166 9.77506 2.415C10.7951 3.15166 11.6167 4.17166 12.2401 5.475C12.8634 6.77833 13.1751 8.45 13.1751 10.49V62ZM41.8201 14.485C41.8201 13.8617 41.7634 13.2383 41.6501 12.615C41.5934 11.935 41.4234 11.34 41.1401 10.83C40.9134 10.2633 40.5451 9.81 40.0351 9.47C39.5817 9.13 38.9301 8.96 38.0801 8.96C37.0034 8.96 36.0967 9.3 35.3601 9.98C35.0201 9.07333 34.8501 8.25166 34.8501 7.515C34.8501 6.60833 34.9917 5.73 35.2751 4.88C35.6151 3.97333 36.1251 3.18 36.8051 2.5C37.4851 1.82 38.3351 1.28166 39.3551 0.884996C40.4317 0.431662 41.7351 0.204995 43.2651 0.204995C46.6651 0.204995 49.3001 1.225 51.1701 3.265C53.0401 5.305 53.9751 8.11 53.9751 11.68V62C52.4451 62 50.9434 61.8867 49.4701 61.66C48.0534 61.4333 46.7501 60.98 45.5601 60.3C44.4267 59.5633 43.5201 58.4867 42.8401 57.07C42.1601 55.6533 41.8201 53.755 41.8201 51.375V14.485ZM79.3874 0.289999H80.7474C82.1074 0.289999 83.4391 0.459999 84.7424 0.799998C86.0457 1.08333 87.2074 1.62166 88.2274 2.415C89.2474 3.15166 90.0691 4.17166 90.6924 5.475C91.3157 6.77833 91.6274 8.45 91.6274 10.49V51.885C91.6274 53.9817 91.2874 55.6817 90.6074 56.985C89.9841 58.2883 89.1341 59.3083 88.0574 60.045C87.0374 60.7817 85.8191 61.2917 84.4024 61.575C83.0424 61.8583 81.6541 62 80.2374 62H79.3874V0.289999ZM108.457 62H107.607C106.134 62 104.661 61.8583 103.187 61.575C101.771 61.2917 100.467 60.7817 99.2774 60.045C98.1441 59.3083 97.2091 58.2883 96.4724 56.985C95.7357 55.6817 95.3674 53.9817 95.3674 51.885V31.315H96.7274C98.1441 31.315 99.5607 31.485 100.977 31.825C102.394 32.1083 103.641 32.6467 104.717 33.44C105.851 34.1767 106.757 35.1967 107.437 36.5C108.117 37.8033 108.457 39.475 108.457 41.515V62ZM109.307 18.905C109.307 22.305 108.599 25.0817 107.182 27.235C105.766 29.3317 103.499 30.38 100.382 30.38C99.2491 30.38 98.2291 30.21 97.3224 29.87C96.4157 29.4733 95.6507 28.9917 95.0274 28.425C94.4041 27.8583 93.9224 27.2067 93.5824 26.47C93.2424 25.7333 93.0724 25.025 93.0724 24.345C93.0724 23.665 93.1007 23.1267 93.1574 22.73C93.2141 22.3333 93.2707 21.9933 93.3274 21.71C93.6107 22.05 93.8657 22.305 94.0924 22.475C94.3757 22.645 94.7441 22.73 95.1974 22.73C95.9907 22.6733 96.4724 22.3617 96.6424 21.795C96.8124 21.1717 96.8974 20.435 96.8974 19.585V0.374998H98.0024C99.1924 0.374998 100.439 0.488332 101.742 0.714999C103.046 0.941666 104.264 1.42333 105.397 2.16C106.531 2.84 107.466 3.88833 108.202 5.305C108.939 6.665 109.307 8.50666 109.307 10.83V18.905Z" fill="black"/>
</svg>
