<svg width="75" height="70" viewBox="0 0 75 70" fill="none" xmlns="http://www.w3.org/2000/svg">
<rect width="75" height="70" rx="35" fill="white" fill-opacity="0.55"/>
<path d="M28.8787 45.7891L27.4033 47.2457C27.2066 47.4399 26.9803 47.537 26.7246 47.537C26.4689 47.537 26.2426 47.4399 26.0459 47.2457L12.2951 33.67C12.0984 33.4758 12 33.2525 12 33C12 32.7475 12.0984 32.5242 12.2951 32.33L26.0459 18.7543C26.2426 18.5601 26.4689 18.463 26.7246 18.463C26.9803 18.463 27.2066 18.5601 27.4033 18.7543L28.8787 20.2109C29.0754 20.4051 29.1738 20.6285 29.1738 20.881C29.1738 21.1335 29.0754 21.3568 28.8787 21.551L17.282 33L28.8787 44.449C29.0754 44.6432 29.1738 44.8665 29.1738 45.119C29.1738 45.3715 29.0754 45.5949 28.8787 45.7891ZM46.318 14.7049L35.3115 52.3147C35.2328 52.5672 35.0803 52.7565 34.8541 52.8828C34.6279 53.009 34.3967 53.0333 34.1607 52.9556L32.3311 52.4604C32.0754 52.3827 31.8836 52.2322 31.7557 52.0088C31.6279 51.7855 31.6033 51.5475 31.682 51.2951L42.6885 13.6853C42.7672 13.4328 42.9197 13.2435 43.1459 13.1172C43.3721 12.991 43.6033 12.9667 43.8393 13.0444L45.6689 13.5396C45.9246 13.6173 46.1164 13.7678 46.2443 13.9912C46.3721 14.2145 46.3967 14.4525 46.318 14.7049ZM65.7049 33.67L51.9541 47.2457C51.7574 47.4399 51.5311 47.537 51.2754 47.537C51.0197 47.537 50.7934 47.4399 50.5967 47.2457L49.1213 45.7891C48.9246 45.5949 48.8262 45.3715 48.8262 45.119C48.8262 44.8665 48.9246 44.6432 49.1213 44.449L60.718 33L49.1213 21.551C48.9246 21.3568 48.8262 21.1335 48.8262 20.881C48.8262 20.6285 48.9246 20.4051 49.1213 20.2109L50.5967 18.7543C50.7934 18.5601 51.0197 18.463 51.2754 18.463C51.5311 18.463 51.7574 18.5601 51.9541 18.7543L65.7049 32.33C65.9016 32.5242 66 32.7475 66 33C66 33.2525 65.9016 33.4758 65.7049 33.67Z" fill="white"/>
</svg>
